<svg width="512" height="512" viewBox="0 0 512 512" fill="none" xmlns="http://www.w3.org/2000/svg">
        <rect width="512" height="512" rx="128" fill="#6366f1"/>
        <path d="M256 128C185.307 128 128 185.307 128 256s57.307 128 128 128 128-57.307 128-128S326.693 128 256 128zm0 224c-52.935 0-96-43.065-96-96s43.065-96 96-96 96 43.065 96 96-43.065 96-96 96z" fill="white"/>
        <path d="M256 176c-44.183 0-80 35.817-80 80s35.817 80 80 80 80-35.817 80-80-35.817-80-80-80zm0 128c-26.51 0-48-21.49-48-48s21.49-48 48-48 48 21.49 48 48-21.49 48-48 48z" fill="white"/>
    </svg>